<svg xmlns="http://www.w3.org/2000/svg" width="28" height="28" fill="none"><g fill="#fff" opacity=".8"><path d="M25.128 9.411a8.096 8.096 0 0 0-.521-2.752 5.73 5.73 0 0 0-3.276-3.27 8.23 8.23 0 0 0-2.719-.52c-1.196-.054-1.576-.07-4.613-.07-3.038 0-3.427 0-4.615.07-.93.019-1.849.194-2.718.52a5.726 5.726 0 0 0-3.275 3.27 8.127 8.127 0 0 0-.521 2.714c-.054 1.196-.07 1.574-.07 4.607 0 3.032 0 3.42.07 4.607.018.929.194 1.846.52 2.716a5.729 5.729 0 0 0 3.277 3.268 8.2 8.2 0 0 0 2.718.56c1.198.053 1.577.069 4.615.069 3.038 0 3.427 0 4.615-.07a8.211 8.211 0 0 0 2.719-.52 5.736 5.736 0 0 0 3.275-3.27c.327-.87.503-1.785.521-2.716.054-1.194.07-1.573.07-4.607-.002-3.032-.002-3.417-.072-4.606ZM13.99 19.715a5.745 5.745 0 0 1-5.75-5.741 5.744 5.744 0 0 1 5.75-5.741c3.175 0 5.75 2.57 5.75 5.74a5.746 5.746 0 0 1-5.75 5.742Zm5.98-10.356a1.338 1.338 0 1 1 0-2.677 1.338 1.338 0 1 1 0 2.677Z"/><path d="M13.993 17.48a3.504 3.504 0 1 0 0-7.008 3.504 3.504 0 0 0 0 7.007Z"/></g></svg>