<svg xmlns="http://www.w3.org/2000/svg" width="50" height="50" fill="none"><path fill="url(#a)" d="M43.951 29.006 33.408 4.855l-2.3-1.594-2.695-.858-3.646-.981-4.281 1.839-2.854 1.594 10.781 24.15h15.538Z"/><path fill="url(#b)" d="m6.113 20.93 10.544 24.207 2.299 1.598 2.695.86 3.647.983 4.28-1.843 2.854-1.598-10.78-24.207H6.112Z"/><path fill="#fff" d="M17.068 5.17.7 28.83l16.368.175L28.9 5.17c.831-2.438 3.43-1.016 4.626 0-5.11-9.363-13.101-3.901-16.458 0ZM32.932 44.83 49.3 21.17l-16.368-.175L21.099 44.83c-.83 2.438-3.43 1.016-4.625 0 5.11 9.363 13.101 3.901 16.458 0Z"/><defs><linearGradient id="a" x1="41.224" x2="28.72" y1="29.006" y2="5.613" gradientUnits="userSpaceOnUse"><stop/><stop offset=".495" stop-color="#fff"/><stop offset="1" stop-color="#fff"/></linearGradient><linearGradient id="b" x1="8.84" x2="21.39" y1="20.93" y2="44.353" gradientUnits="userSpaceOnUse"><stop stop-color="#0C0C0C"/><stop offset=".495" stop-color="#fff"/><stop offset="1" stop-color="#fff"/></linearGradient></defs></svg>