<svg aria-hidden="true" style="position: absolute; width: 0; height: 0; overflow: hidden;" version="1.1" xmlns="http://www.w3.org/2000/svg" xmlns:xlink="http://www.w3.org/1999/xlink">
<defs>
<symbol id="icon-logo-f" viewBox="0 0 32 32">
<path fill="#000" style="fill: var(--color1, #000)" d="M28.129 18.564l-6.748-15.457-1.472-1.020-1.725-0.549-2.333-0.628-2.74 1.177-1.827 1.020 6.9 15.456h9.944z"></path>
<path fill="#000" style="fill: var(--color1, #000)" d="M3.912 13.395l6.748 15.492 1.471 1.023 1.725 0.55 2.334 0.629 2.739-1.18 1.827-1.023-6.899-15.492h-9.946z"></path>
<path fill="#fff" style="fill: var(--color2, #fff)" d="M10.924 3.309l-10.476 15.142 10.476 0.112 7.572-15.254c0.532-1.56 2.195-0.65 2.961 0-3.27-5.992-8.385-2.497-10.533 0zM21.076 28.691l10.476-15.142-10.476-0.112-7.573 15.254c-0.531 1.56-2.195 0.65-2.96 0 3.27 5.992 8.385 2.497 10.533 0z"></path>
</symbol>
<symbol id="icon-youtube-f" viewBox="0 0 32 32">
<path fill="#fff" style="fill: var(--color2, #fff)" opacity="0.8" d="M24.24 6c-1.36-0.080-4.16-0.16-8.4-0.16h-0.56c-4.080 0-6.8 0.080-8.16 0.24-1.84 0.16-3.12 0.64-3.84 1.28-0.64 0.56-1.12 1.6-1.28 2.96-0.080 0.88-0.16 2.72-0.16 5.52v0.4c0 2.64 0.080 4.48 0.24 5.36 0.24 1.28 0.64 2.24 1.44 2.8 0.8 0.64 2.16 1.040 4.080 1.2 1.36 0.080 4.16 0.16 8.4 0.16h0.56c4.080 0 6.8-0.080 8.16-0.24 1.84-0.16 3.12-0.64 3.84-1.28 0.64-0.56 1.12-1.6 1.28-2.96 0.080-0.88 0.16-2.72 0.16-5.52v-0.4c0-2.64-0.080-4.48-0.24-5.36-0.24-1.28-0.64-2.24-1.44-2.8-0.8-0.64-2.16-1.040-4.080-1.2zM21.12 15.84l-8.8 5.28v-10.56l8.8 5.28z"></path>
</symbol>
<symbol id="icon-instagram-f" viewBox="0 0 32 32">
<path fill="#fff" style="fill: var(--color2, #fff)" opacity="0.8" d="M28.718 10.755c-0.015-1.134-0.233-2.213-0.617-3.208l0.021 0.063c-0.682-1.722-2.021-3.059-3.7-3.722l-0.044-0.015c-0.921-0.355-1.985-0.571-3.098-0.594l-0.010-0c-1.367-0.062-1.801-0.080-5.272-0.080-3.472 0-3.917 0-5.274 0.080-1.063 0.022-2.113 0.222-3.106 0.594-1.723 0.678-3.062 2.015-3.727 3.693l-0.015 0.044c-0.357 0.919-0.574 1.982-0.595 3.093l-0 0.009c-0.062 1.367-0.080 1.799-0.080 5.265 0 3.465 0 3.909 0.080 5.265 0.021 1.062 0.222 2.11 0.594 3.104 0.682 1.721 2.022 3.057 3.701 3.719l0.044 0.015c0.917 0.37 1.979 0.602 3.091 0.64l0.016 0c1.369 0.061 1.802 0.079 5.274 0.079s3.917 0 5.274-0.080c1.122-0.023 2.187-0.239 3.172-0.616l-0.064 0.022c1.722-0.68 3.061-2.016 3.727-3.693l0.016-0.044c0.374-0.994 0.575-2.040 0.595-3.104 0.062-1.365 0.080-1.798 0.080-5.265-0.002-3.465-0.002-3.905-0.082-5.264zM15.989 22.531c-0.002 0-0.004 0-0.006 0-3.625 0-6.563-2.937-6.566-6.561v-0c0.002-3.624 2.94-6.561 6.565-6.561 0.002 0 0.005 0 0.007 0h-0c3.629 0 6.571 2.937 6.571 6.56-0.003 3.625-2.942 6.562-6.567 6.562-0.002 0-0.003 0-0.005 0h0zM22.823 10.696c-0.845 0-1.53-0.685-1.53-1.53s0.685-1.53 1.53-1.53v0c0.845 0 1.53 0.685 1.53 1.53s-0.685 1.53-1.53 1.53v0z"></path>
<path fill="#fff" style="fill: var(--color2, #fff)" opacity="0.8" d="M15.992 19.977c2.212 0 4.005-1.793 4.005-4.005s-1.793-4.005-4.005-4.005v0c-2.182 0.038-3.937 1.816-3.937 4.004s1.755 3.966 3.933 4.004l0.004 0z"></path>
</symbol>
<symbol id="icon-facebook-f" viewBox="0 0 32 32">
<path fill="#fff" style="fill: var(--color2, #fff)" opacity="0.8" d="M19.52 4.64h0.96v3.6h-1.2c-0.48 0-0.96 0-1.2 0.24s-0.24 0.48-0.24 1.040v1.28h2.64v3.040h-2.64v13.2h-4.080v-13.28h-2.16v-3.040h2.16v-1.040c0-1.76 0.24-3.040 0.72-3.6 0.72-1.040 2.16-1.52 4.32-1.52 0.24 0.080 0.48 0.080 0.72 0.080z"></path>
</symbol>
</defs>
</svg>
