<svg aria-hidden="true" style="position: absolute; width: 0; height: 0; overflow: hidden;" version="1.1" xmlns="http://www.w3.org/2000/svg" xmlns:xlink="http://www.w3.org/1999/xlink">
<defs>
<symbol id="icon-logo" viewBox="0 0 32 32">
<path fill="#000" style="fill: var(--color1, #000)" d="M28.128 18.563l-6.747-15.458-1.472-1.019-1.725-0.549-2.334-0.628-2.739 1.177-1.827 1.019 6.9 15.458h9.944z"></path>
<path fill="#000" style="fill: var(--color1, #000)" d="M3.912 13.396l6.749 15.491 1.47 1.022 1.725 0.551 2.334 0.63 2.74-1.179 1.826-1.024-6.9-15.493h-9.944z"></path>
<path fill="#fff" style="fill: var(--color2, #fff)" d="M10.924 3.309l-10.476 15.141 10.476 0.113 7.572-15.254c0.532-1.561 2.196-0.65 2.961 0-3.271-5.992-8.386-2.498-10.533 0zM21.076 28.691l10.476-15.141-10.476-0.113-7.572 15.254c-0.532 1.561-2.196 0.652-2.961 0 3.271 5.992 8.386 2.498 10.533 0z"></path>
</symbol>
</defs>
</svg>
